<?xml version="1.0" standalone="no"?>
<!DOCTYPE svg PUBLIC "-//W3C//DTD SVG 20010904//EN"
 "http://www.w3.org/TR/2001/REC-SVG-20010904/DTD/svg10.dtd">
<svg version="1.0" xmlns="http://www.w3.org/2000/svg"
 width="2416.000000pt" height="2416.000000pt" viewBox="0 0 2416.000000 2416.000000"
 preserveAspectRatio="xMidYMid meet">
<metadata>
Created by potrace 1.11, written by Peter Selinger 2001-2013
</metadata>
<g transform="translate(0.000000,2416.000000) scale(0.100000,-0.100000)"
fill="#000000" stroke="none">
<path d="M13472 19635 c-108 -26 -177 -72 -234 -156 -60 -90 -75 -186 -88
-564 -20 -608 -87 -1392 -210 -2465 -55 -474 -51 -449 -62 -420 -5 12 -22 77
-39 144 -43 170 -113 381 -172 516 -103 239 -287 524 -512 795 -232 280 -347
389 -625 591 -240 175 -266 191 -538 327 -226 113 -259 126 -392 160 -361 92
-547 130 -700 143 -41 3 -111 10 -155 14 -147 16 -548 2 -759 -26 -124 -16
-141 -20 -466 -111 -266 -73 -425 -129 -520 -180 -36 -20 -112 -60 -170 -91
-58 -30 -162 -95 -232 -143 -69 -49 -129 -89 -131 -89 -3 0 -35 38 -70 83
-194 249 -514 454 -888 571 -724 226 -1529 285 -2529 185 -1107 -110 -2450
-411 -3251 -730 -57 -22 -137 -54 -178 -70 -93 -37 -161 -87 -211 -153 -31
-41 -44 -72 -61 -145 l-21 -93 21 -89 c18 -77 33 -111 114 -247 622 -1042
1736 -3373 2584 -5407 195 -468 503 -1251 503 -1281 0 -15 92 -134 111 -145
34 -18 11 -27 -111 -43 -243 -34 -453 -71 -512 -91 -56 -19 -135 -82 -180
-143 -31 -41 -47 -77 -64 -146 -13 -50 -24 -103 -24 -119 0 -24 254 -1193 331
-1521 37 -159 76 -222 181 -296 38 -27 63 -51 58 -56 -4 -5 -19 -55 -32 -110
l-25 -102 24 -98 c18 -80 49 -153 159 -381 l136 -282 6 -210 c4 -181 -11 -880
-23 -1026 -2 -27 -7 -147 -11 -266 -6 -201 -5 -222 16 -315 19 -81 31 -110 66
-160 104 -145 229 -188 579 -197 116 -4 501 -14 857 -23 l647 -17 103 23 c124
28 195 72 263 163 36 49 48 77 68 161 l25 103 -30 134 c-16 74 -45 206 -64
294 -86 386 -232 1111 -226 1116 9 9 251 66 567 133 452 97 539 118 580 136
43 19 242 66 249 59 3 -3 16 -130 30 -284 14 -154 48 -525 76 -825 28 -300 57
-621 65 -715 19 -208 20 -215 56 -291 58 -123 189 -213 323 -221 99 -6 3114
272 3181 293 105 33 203 121 246 222 20 47 16 46 107 32 37 -5 411 -57 832
-116 l765 -106 100 22 c80 17 113 30 163 63 72 48 150 147 159 202 3 19 8 35
10 35 3 0 24 -14 47 -30 28 -21 74 -38 143 -55 l101 -24 119 29 c65 16 307 95
538 176 508 177 767 263 778 257 4 -2 7 -57 7 -121 1 -231 59 -370 193 -464
58 -41 115 -61 853 -296 435 -138 838 -263 896 -277 113 -27 117 -27 280 16
88 23 732 510 1075 812 73 65 135 117 138 117 3 0 5 -5 5 -11 0 -28 92 -138
149 -178 34 -23 396 -216 804 -427 696 -361 748 -386 844 -409 l101 -24 102
25 c126 30 199 77 263 168 36 51 47 80 70 177 15 64 27 128 27 143 0 14 4 26
8 26 7 0 339 -422 436 -553 15 -20 52 -56 82 -78 45 -33 75 -46 161 -66 l105
-25 102 24 101 24 900 534 c495 293 928 553 963 578 96 68 145 143 172 268
l23 102 -23 93 c-13 52 -27 102 -32 112 -5 10 -10 43 -12 75 -5 106 -45 152
-180 208 -229 94 -706 312 -706 323 0 3 35 29 77 56 312 202 480 350 626 550
108 149 147 235 193 430 34 142 38 175 38 295 1 142 -3 164 -95 560 -91 386
-385 722 -979 1115 -356 236 -715 415 -1320 657 -464 186 -944 354 -1323 464
-204 59 -243 63 -310 29 -19 -10 -43 -13 -63 -9 -19 3 -72 -3 -131 -17 -79
-18 -109 -30 -158 -65 -54 -38 -115 -107 -142 -159 -20 -39 -53 -213 -78 -410
-26 -210 -105 -747 -111 -754 -2 -2 -41 32 -86 75 -100 96 -212 183 -378 297
-360 245 -757 416 -1257 541 -537 135 -994 186 -1533 172 -146 -4 -295 -10
-332 -14 -46 -5 -68 -4 -68 3 0 6 9 51 19 100 18 85 25 203 46 735 3 74 12
360 20 635 22 746 27 868 36 891 5 15 22 24 66 33 32 7 195 47 363 88 916 226
1688 497 2169 762 402 221 714 473 888 716 184 259 256 415 328 722 49 209 61
334 47 476 -11 111 -63 353 -103 477 -105 324 -446 779 -849 1134 -569 501
-1258 922 -2180 1331 -916 407 -1756 683 -2626 864 l-180 38 -92 -22z"/>
</g>
</svg>
